<?xml version="1.0" encoding="utf-8"?>
<!-- Generator: Adobe Illustrator 23.0.1, SVG Export Plug-In . SVG Version: 6.00 Build 0)  -->
<svg version="1.1" id="Слой_1" xmlns="http://www.w3.org/2000/svg" xmlns:xlink="http://www.w3.org/1999/xlink" x="0px" y="0px"
	 viewBox="0 0 629.2 220" style="enable-background:new 0 0 629.2 220;" xml:space="preserve">
<style type="text/css">
	.st0{fill:#FF6666;}
	.st1{enable-background:new    ;}
	.st2{fill:#FFFFFF;}
</style>
<title>Монтажная область 1</title>
<g>
	<path class="st0" d="M203,0H17C7.6,0,0,7.6,0,17v186c0,9.4,7.6,17,17,17h186c9.4,0,17-7.6,17-17V17C220,7.6,212.4,0,203,0z
		 M111.5,186.4c-42.2,0.8-77-32.7-77.8-74.9c-0.8-42.2,32.7-77,74.9-77.8c42.2-0.8,77,32.7,77.8,74.9c0,1,0,1.9,0,2.9
		C185.6,152.5,152.5,185.6,111.5,186.4z"/>
</g>
<g id="Слой_3">
	<path class="st0" d="M37.2,78.6l14.8-22l48,61.2l-17.4,18.6L37.2,78.6z"/>
	<path class="st0" d="M159.1,159.7H96.6L82,193.9l-27.2,0.7C78.1,141,101.4,87.5,124.7,34l8.8,1.1l62.1,145.7l-27.4,0.1L159.1,159.7
		z M106.1,137.7h44.1L135.1,101l-6.6-16.1c-2.4,5.7-4.8,11.4-7.2,17.1C116.2,113.9,111.2,125.8,106.1,137.7L106.1,137.7z"/>
</g>
<g id="Слой_6">
	<g class="st1">
		<path class="st2" d="M279,71.3L289.9,51h5.1l-13.6,24.9v15.8h-4.8V76.1L263.1,51h5.2L279,71.3z"/>
		<path class="st2" d="M302.3,61.2v19.8c0,2.5,0.6,4.3,1.7,5.6c1.1,1.2,2.9,1.8,5.3,1.8c3.2,0,5.5-0.9,7-2.6
			c1.5-1.7,2.2-4.6,2.2-8.5v-16h4.6v30.5h-3.8l-0.7-4.1h-0.3c-0.9,1.5-2.3,2.7-3.9,3.5c-1.7,0.8-3.6,1.2-5.7,1.2
			c-3.7,0-6.5-0.9-8.3-2.6c-1.8-1.8-2.8-4.6-2.8-8.5v-20H302.3z"/>
		<path class="st2" d="M369.9,91.7V71.8c0-2.4-0.5-4.3-1.6-5.5c-1-1.2-2.7-1.8-4.8-1.8c-2.9,0-5,0.8-6.4,2.5s-2.1,4.2-2.1,7.6v17
			h-4.6V71.8c0-2.4-0.5-4.3-1.6-5.5c-1-1.2-2.7-1.8-4.9-1.8c-2.9,0-5,0.9-6.4,2.6c-1.3,1.7-2,4.6-2,8.5v16H331V61.2h3.8l0.8,4.2h0.2
			c0.9-1.5,2.1-2.6,3.7-3.5c1.6-0.8,3.4-1.3,5.3-1.3c4.8,0,7.9,1.7,9.4,5.2h0.2c0.9-1.6,2.2-2.9,4-3.8s3.7-1.4,5.9-1.4
			c3.5,0,6,0.9,7.8,2.7c1.7,1.8,2.6,4.6,2.6,8.5v19.9H369.9z"/>
		<path class="st2" d="M421,91.7V71.8c0-2.4-0.5-4.3-1.6-5.5c-1-1.2-2.7-1.8-4.8-1.8c-2.9,0-5,0.8-6.4,2.5s-2.1,4.2-2.1,7.6v17h-4.6
			V71.8c0-2.4-0.5-4.3-1.6-5.5c-1-1.2-2.7-1.8-4.9-1.8c-2.9,0-5,0.9-6.4,2.6c-1.3,1.7-2,4.6-2,8.5v16h-4.6V61.2h3.8l0.8,4.2h0.2
			c0.9-1.5,2.1-2.6,3.7-3.5c1.6-0.8,3.4-1.3,5.3-1.3c4.8,0,7.9,1.7,9.4,5.2h0.2c0.9-1.6,2.2-2.9,4-3.8s3.7-1.4,5.9-1.4
			c3.5,0,6,0.9,7.8,2.7c1.7,1.8,2.6,4.6,2.6,8.5v19.9H421z"/>
		<path class="st2" d="M428.3,61.2h5l6.7,17.4c1.5,4,2.4,6.8,2.7,8.6h0.2c0.2-0.9,0.7-2.6,1.5-4.9s3.3-9.3,7.6-21.1h5l-13.1,34.7
			c-1.3,3.4-2.8,5.9-4.6,7.3c-1.7,1.4-3.9,2.2-6.4,2.2c-1.4,0-2.8-0.2-4.2-0.5v-3.7c1,0.2,2.2,0.3,3.4,0.3c3.2,0,5.4-1.8,6.8-5.3
			l1.7-4.3L428.3,61.2z"/>
		<path class="st2" d="M499.1,91.7L494,78.7h-16.3l-5,12.9h-4.8L484,50.8h4l16,40.9H499.1z M492.5,74.5l-4.7-12.6
			c-0.6-1.6-1.2-3.6-1.9-5.9c-0.4,1.8-1,3.7-1.8,5.9l-4.8,12.6H492.5z"/>
		<path class="st2" d="M527.8,91.7V71.9c0-2.5-0.6-4.3-1.7-5.6s-2.9-1.8-5.3-1.8c-3.2,0-5.5,0.9-7,2.6s-2.2,4.6-2.2,8.5v16h-4.6
			V61.2h3.8l0.8,4.2h0.2c0.9-1.5,2.3-2.7,4-3.5c1.7-0.8,3.6-1.2,5.7-1.2c3.7,0,6.4,0.9,8.3,2.7c1.9,1.8,2.8,4.6,2.8,8.5v19.9H527.8z
			"/>
		<path class="st2" d="M539.6,52.9c0-1.1,0.3-1.8,0.8-2.3s1.2-0.7,1.9-0.7c0.7,0,1.4,0.3,1.9,0.8s0.8,1.3,0.8,2.3s-0.3,1.8-0.8,2.3
			c-0.5,0.5-1.2,0.8-1.9,0.8c-0.8,0-1.4-0.3-1.9-0.8C539.9,54.7,539.6,53.9,539.6,52.9z M544.6,91.7H540V61.2h4.6V91.7z"/>
		<path class="st2" d="M591.3,91.7V71.8c0-2.4-0.5-4.3-1.6-5.5c-1-1.2-2.7-1.8-4.8-1.8c-2.9,0-5,0.8-6.4,2.5s-2.1,4.2-2.1,7.6v17
			h-4.6V71.8c0-2.4-0.5-4.3-1.6-5.5c-1-1.2-2.7-1.8-4.9-1.8c-2.9,0-5,0.9-6.4,2.6c-1.3,1.7-2,4.6-2,8.5v16h-4.6V61.2h3.8l0.8,4.2
			h0.2c0.9-1.5,2.1-2.6,3.7-3.5c1.6-0.8,3.4-1.3,5.3-1.3c4.8,0,7.9,1.7,9.4,5.2h0.2c0.9-1.6,2.2-2.9,4-3.8s3.7-1.4,5.9-1.4
			c3.5,0,6,0.9,7.8,2.7c1.7,1.8,2.6,4.6,2.6,8.5v19.9H591.3z"/>
		<path class="st2" d="M616.4,92.2c-4.5,0-8.1-1.4-10.7-4.1c-2.6-2.7-3.9-6.6-3.9-11.4c0-4.9,1.2-8.8,3.6-11.7
			c2.4-2.9,5.7-4.3,9.8-4.3c3.8,0,6.8,1.3,9.1,3.8c2.2,2.5,3.3,5.8,3.3,9.9v2.9h-21c0.1,3.6,1,6.3,2.7,8.2s4.1,2.8,7.3,2.8
			c3.3,0,6.5-0.7,9.7-2.1v4.1c-1.6,0.7-3.2,1.2-4.6,1.5C620.3,92.1,618.5,92.2,616.4,92.2z M615.2,64.5c-2.4,0-4.4,0.8-5.9,2.4
			c-1.5,1.6-2.3,3.8-2.6,6.6h15.9c0-2.9-0.6-5.1-1.9-6.7C619.4,65.2,617.6,64.5,615.2,64.5z"/>
	</g>
	<g class="st1">
		<path class="st2" d="M274.3,153.8l7.6-14.3h3.6l-9.5,17.5v11.1h-3.4v-10.9l-9.5-17.6h3.6L274.3,153.8z"/>
		<path class="st2" d="M306,168.1l-3.6-9.1H291l-3.5,9.1h-3.4l11.3-28.7h2.8l11.2,28.7H306z M301.4,156l-3.3-8.8
			c-0.4-1.1-0.9-2.5-1.3-4.1c-0.3,1.3-0.7,2.6-1.2,4.1l-3.4,8.8H301.4z"/>
	</g>
	<g class="st1">
		<path class="st2" d="M404.7,168.1l-0.6-3h-0.2c-1.1,1.3-2.1,2.2-3.2,2.7s-2.4,0.7-4,0.7c-2.1,0-3.8-0.5-5-1.6s-1.8-2.6-1.8-4.7
			c0-4.3,3.5-6.6,10.4-6.8l3.6-0.1v-1.3c0-1.7-0.4-2.9-1.1-3.7s-1.9-1.2-3.5-1.2c-1.8,0-3.8,0.5-6.1,1.6l-1-2.5
			c1.1-0.6,2.2-1,3.5-1.3s2.5-0.5,3.8-0.5c2.6,0,4.4,0.6,5.7,1.7s1.8,2.9,1.8,5.4v14.6H404.7z M397.4,165.8c2,0,3.6-0.6,4.8-1.7
			s1.7-2.7,1.7-4.6v-1.9l-3.2,0.1c-2.6,0.1-4.4,0.5-5.6,1.2s-1.7,1.8-1.7,3.3c0,1.2,0.4,2.1,1.1,2.7S396.1,165.8,397.4,165.8z"/>
		<path class="st2" d="M427.1,168.1v-13.8c0-1.7-0.4-3-1.2-3.9c-0.8-0.9-2-1.3-3.7-1.3c-2.2,0-3.9,0.6-4.9,1.8c-1,1.2-1.6,3.2-1.6,6
			v11.2h-3.2v-21.4h2.6l0.5,2.9h0.2c0.7-1.1,1.6-1.9,2.8-2.5c1.2-0.6,2.5-0.9,4-0.9c2.6,0,4.5,0.6,5.8,1.9c1.3,1.2,2,3.2,2,6v14
			H427.1z"/>
		<path class="st2" d="M435.4,140.9c0-0.7,0.2-1.3,0.5-1.6c0.4-0.3,0.8-0.5,1.4-0.5c0.5,0,1,0.2,1.3,0.5c0.4,0.4,0.6,0.9,0.6,1.6
			s-0.2,1.3-0.6,1.6c-0.4,0.4-0.8,0.5-1.3,0.5c-0.5,0-1-0.2-1.4-0.5C435.6,142.1,435.4,141.6,435.4,140.9z M438.9,168.1h-3.2v-21.4
			h3.2V168.1z"/>
		<path class="st2" d="M471.7,168.1v-13.9c0-1.7-0.4-3-1.1-3.8s-1.9-1.3-3.4-1.3c-2,0-3.5,0.6-4.5,1.7s-1.4,2.9-1.4,5.4v12H458
			v-13.9c0-1.7-0.4-3-1.1-3.8s-1.9-1.3-3.4-1.3c-2,0-3.5,0.6-4.5,1.8s-1.4,3.2-1.4,6v11.2h-3.2v-21.4h2.6l0.5,2.9h0.2
			c0.6-1,1.5-1.9,2.6-2.4s2.4-0.9,3.7-0.9c3.3,0,5.5,1.2,6.6,3.6h0.2c0.6-1.1,1.6-2,2.8-2.7s2.6-1,4.1-1c2.4,0,4.2,0.6,5.4,1.9
			s1.8,3.2,1.8,6v14H471.7z"/>
		<path class="st2" d="M489.3,168.5c-3.2,0-5.7-1-7.5-2.9c-1.8-1.9-2.7-4.6-2.7-8c0-3.5,0.8-6.2,2.5-8.2s4-3,6.8-3
			c2.7,0,4.8,0.9,6.4,2.6s2.3,4.1,2.3,7v2.1h-14.7c0.1,2.5,0.7,4.4,1.9,5.7c1.2,1.3,2.9,2,5.1,2c2.3,0,4.6-0.5,6.8-1.4v2.9
			c-1.1,0.5-2.2,0.8-3.3,1.1C492,168.3,490.7,168.5,489.3,168.5z M488.4,149c-1.7,0-3.1,0.6-4.1,1.7c-1,1.1-1.6,2.7-1.8,4.6h11.2
			c0-2-0.5-3.6-1.4-4.7C491.4,149.5,490.1,149,488.4,149z"/>
	</g>
	<path class="st0" d="M349.3,178.7L328.5,158c-15.2-15.1,5.6-35.9,20.7-20.7c15.2-15.2,36,5.5,20.8,20.7L349.3,178.7z"/>
</g>
</svg>
